HIERARCHY
ROOT Hips
{
	OFFSET 0.00000 0.00000 0.00000
	CHANNELS 6 Xposition Yposition Zposition Zrotation Yrotation Xrotation 
	JOINT LHipJoint
	{
		OFFSET 0 0 0
		CHANNELS 3 Zrotation Yrotation Xrotation
		JOINT LeftUpLeg
		{
			OFFSET 1.66553 -1.82942 0.76350
			CHANNELS 3 Zrotation Yrotation Xrotation
			JOINT LeftLeg
			{
				OFFSET 2.41740 -6.64177 0.00000
				CHANNELS 3 Zrotation Yrotation Xrotation
				JOINT LeftFoot
				{
					OFFSET 2.71614 -7.46254 0.00000
					CHANNELS 3 Zrotation Yrotation Xrotation
					JOINT LeftToeBase
					{
						OFFSET 0.08005 -0.21993 1.82495
						CHANNELS 3 Zrotation Yrotation Xrotation
						End Site
						{
							OFFSET 0.00000 -0.00000 0.93441
						}
					}
				}
			}
		}
	}
	JOINT RHipJoint
	{
		OFFSET 0 0 0
		CHANNELS 3 Zrotation Yrotation Xrotation
		JOINT RightUpLeg
		{
			OFFSET -1.63725 -1.82942 0.76350
			CHANNELS 3 Zrotation Yrotation Xrotation
			JOINT RightLeg
			{
				OFFSET -2.40538 -6.60872 0.00000
				CHANNELS 3 Zrotation Yrotation Xrotation
				JOINT RightFoot
				{
					OFFSET -2.73312 -7.50919 0.00000
					CHANNELS 3 Zrotation Yrotation Xrotation
					JOINT RightToeBase
					{
						OFFSET -0.15567 -0.42769 1.93504
						CHANNELS 3 Zrotation Yrotation Xrotation
						End Site
						{
							OFFSET -0.00000 -0.00000 1.00100
						}
					}
				}
			}
		}
	}
	JOINT LowerBack
	{
		OFFSET 0 0 0
		CHANNELS 3 Zrotation Yrotation Xrotation
		JOINT Spine
		{
			OFFSET 0.00326 2.30118 -0.13017
			CHANNELS 3 Zrotation Yrotation Xrotation
			JOINT Spine1
			{
				OFFSET 0.02887 2.30677 0.00834
				CHANNELS 3 Zrotation Yrotation Xrotation
				JOINT Neck
				{
					OFFSET 0 0 0
					CHANNELS 3 Zrotation Yrotation Xrotation
					JOINT Neck1
					{
						OFFSET 0.12946 1.68326 0.00713
						CHANNELS 3 Zrotation Yrotation Xrotation
						JOINT Head
						{
							OFFSET -0.24364 1.67243 -0.16079
							CHANNELS 3 Zrotation Yrotation Xrotation
							End Site
							{
								OFFSET -0.09229 1.70819 -0.06383
							}
						}
					}
				}
				JOINT LeftShoulder
				{
					OFFSET 0 0 0
					CHANNELS 3 Zrotation Yrotation Xrotation
					JOINT LeftArm
					{
						OFFSET 3.28104 0.69567 -0.00556
						CHANNELS 3 Zrotation Yrotation Xrotation
						JOINT LeftForeArm
						{
							OFFSET 5.70706 -0.00000 -0.00000
							CHANNELS 3 Zrotation Yrotation Xrotation
							JOINT LeftHand
							{
								OFFSET 3.33243 -0.00000 0.00000
								CHANNELS 3 Zrotation Yrotation Xrotation
								JOINT LeftFingerBase
								{
									OFFSET 0 0 0
									CHANNELS 3 Zrotation Yrotation Xrotation
									JOINT LeftHandIndex1
									{
										OFFSET 0.79269 -0.00000 0.00000
										CHANNELS 3 Zrotation Yrotation Xrotation
										End Site
										{
											OFFSET 0.63909 -0.00000 0.00000
										}
									}
								}
								JOINT LThumb
								{
									OFFSET 0 0 0
									CHANNELS 3 Zrotation Yrotation Xrotation
									End Site
									{
										OFFSET 0.64884 -0.00000 0.64884
									}
								}
							}
						}
					}
				}
				JOINT RightShoulder
				{
					OFFSET 0 0 0
					CHANNELS 3 Zrotation Yrotation Xrotation
					JOINT RightArm
					{
						OFFSET -3.40955 0.64424 0.14010
						CHANNELS 3 Zrotation Yrotation Xrotation
						JOINT RightForeArm
						{
							OFFSET -5.88176 -0.00000 -0.00000
							CHANNELS 3 Zrotation Yrotation Xrotation
							JOINT RightHand
							{
								OFFSET -3.28156 -0.00000 0.00000
								CHANNELS 3 Zrotation Yrotation Xrotation
								JOINT RightFingerBase
								{
									OFFSET 0 0 0
									CHANNELS 3 Zrotation Yrotation Xrotation
									JOINT RightHandIndex1
									{
										OFFSET -0.86313 -0.00000 0.00000
										CHANNELS 3 Zrotation Yrotation Xrotation
										End Site
										{
											OFFSET -0.69587 -0.00000 0.00000
										}
									}
								}
								JOINT RThumb
								{
									OFFSET 0 0 0
									CHANNELS 3 Zrotation Yrotation Xrotation
									End Site
									{
										OFFSET -0.70650 -0.00000 0.70650
									}
								}
							}
						}
					}
				}
			}
		}
	}
}
MOTION
Frames: 5
Frame Time: 0.00694444
0.00 0.00 0.00 -181.4440 -28.2500 189.4850 0.0000 0.0000 0.0000 -19.8622 2.7123 0.4291 2.6887 10.1732 29.5396 -0.0568 -4.4114 0.2481 0.0034 -0.3783 -1.0394 0.0000 0.0000 0.0000 10.4487 9.4288 -46.7466 -3.0061 -10.7050 31.2912 0.0205 -3.0988 -3.0178 -3.2724 -11.1235 32.6977 -1.0579 -8.2031 9.3166 4.2858 -11.0693 1.0429 6.2654 -5.5749 -3.0054 14.7304 13.6715 5.4042 -32.0103 18.7880 -0.4114 -11.9111 9.1369 3.7802 0.0000 -0.0000 0.0000 -62.2667 10.3672 4.2502 95.7058 -59.8766 -64.9393 -0.0000 0.0000 -41.5698 31.1738 10.8665 6.5067 -7.1250 0.0000 -0.0000 3.7005 42.5952 -0.2199 0.0000 -0.0000 0.0000 67.4165 -22.5255 20.5339 -50.7876 53.3083 -26.8044 0.0000 0.0000 0.0276 -37.4900 34.0325 -23.2334 7.1250 -0.0000 -0.0000 -2.5855 10.3857 -3.0120
0.00 0.00 0.00 -177.2170 -26.0040 186.9160 0.0000 0.0000 0.0000 -16.6525 3.3944 -8.2057 4.4997 12.7972 38.6140 0.6163 -7.4469 -14.1508 0.5516 -4.7578 -13.2190 0.0000 0.0000 0.0000 13.3198 8.8010 -46.7010 -6.5193 -14.9134 47.0320 -0.4053 -6.4835 -16.1324 -3.1438 -10.9242 32.0248 -0.6479 -6.7457 11.1234 3.9646 -9.0518 0.9648 5.8089 -4.5253 -4.4167 14.4444 12.7612 2.0707 -28.1732 17.8172 2.3263 -10.3400 8.3747 4.4210 -0.0000 0.0000 0.0000 -65.2687 12.4634 2.5751 107.2751 -58.8418 -74.9025 -0.0000 0.0000 -42.8917 25.9583 10.9431 5.2801 -7.1250 0.0000 -0.0000 -1.0245 42.1135 0.0730 -0.0000 0.0000 0.0000 68.7957 -14.8949 25.8111 -53.4448 54.2938 -28.9489 0.0000 0.0000 1.2145 -38.0168 34.6226 -23.9494 7.1250 -0.0000 -0.0000 -2.7055 11.2103 -3.1831
0.00 0.00 0.00 -175.4770 -26.6252 185.8860 0.0000 0.0000 0.0000 -13.5365 3.3892 -19.8708 7.0657 15.3870 49.1224 1.4174 -13.4048 -21.9299 0.4599 -4.3503 -12.0644 0.0000 0.0000 0.0000 10.7276 6.0852 -41.9195 -11.3110 -18.0840 63.7876 -1.2271 -3.6482 -22.5284 -3.3276 -11.2074 32.9824 -0.0401 -5.2575 12.3658 2.9724 -6.9198 0.1914 4.3662 -3.3952 -6.3248 15.6222 9.9458 4.3220 -27.3210 14.0014 2.1547 -10.8672 6.7581 3.1022 -0.0000 0.0000 0.0000 -69.1123 12.8080 4.7157 110.8883 -58.2854 -77.9857 -0.0000 0.0000 -40.8601 25.2026 8.5565 4.0054 -7.1250 0.0000 -0.0000 -1.4695 39.4170 0.2022 -0.0000 0.0000 0.0000 71.3914 -6.6221 29.0817 -56.5159 55.3077 -31.4588 0.0000 0.0000 3.3847 -38.7744 34.6527 -24.5485 7.1250 -0.0000 -0.0000 -3.0956 11.5270 -3.6565
0.00 0.00 0.00 -173.4330 -27.5176 184.3910 0.0000 0.0000 0.0000 -9.8500 2.4235 -36.9693 10.7895 17.8306 62.0962 1.1531 -20.2580 -22.3637 0.1525 2.5164 6.9351 0.0000 0.0000 0.0000 6.9003 2.5240 -19.0220 -12.6646 -18.6577 68.0806 -0.8950 -7.5198 -22.1175 -2.9736 -10.6522 31.1157 4.0852 -1.2186 11.6905 0.9153 -1.0854 0.2209 -1.1513 -0.6743 -6.3928 13.8098 5.3066 2.5353 -23.4141 7.7236 5.2973 -9.5518 3.4953 2.5793 -0.0000 0.0000 0.0000 -75.5298 15.2643 6.5146 96.0051 -59.8633 -65.1981 -0.0000 0.0000 -33.8333 26.6839 5.5138 2.7648 -7.1250 0.0000 -0.0000 -0.0122 36.1460 0.0026 -0.0000 0.0000 0.0000 72.6955 3.6193 29.1793 -65.3364 57.5719 -38.8148 0.0000 0.0000 5.5302 -40.2184 34.3772 -25.5229 7.1250 -0.0000 -0.0000 -3.9303 11.7918 -4.6603
0.00 0.00 0.00 -173.7550 -22.7973 184.1840 0.0000 0.0000 0.0000 -6.7175 0.5580 -44.1290 6.4755 14.8738 46.8615 0.2432 -4.0127 -8.7963 1.2123 -6.9845 -19.6695 0.0000 0.0000 0.0000 10.4114 4.1333 11.8150 -3.5875 -11.5903 34.2976 -0.5169 1.0713 14.0114 -2.5936 -10.0062 28.9968 7.2938 3.8351 10.6406 -1.0238 5.7304 1.8119 -5.8817 2.7182 -3.2157 12.4041 1.9651 3.7406 -21.8799 3.4624 8.7119 -8.9688 1.2960 2.4285 -0.0000 -0.0000 0.0000 -81.4185 26.5198 -7.1742 65.7148 -57.6498 -39.1343 -0.0000 0.0000 -33.7244 29.0148 5.5624 3.0773 -7.1250 0.0000 -0.0000 1.9498 36.3287 -0.4159 -0.0000 -0.0000 0.0000 71.4408 11.1392 38.8632 -62.9064 57.0359 -36.7697 0.0000 0.0000 10.7796 -40.0188 36.5565 -26.5703 7.1250 -0.0000 -0.0000 -3.1907 14.0353 -3.8745
